<svg height="512pt" viewBox="0 -1 512 512" width="512pt" xmlns="http://www.w3.org/2000/svg"><path d="m0 510.726562h120.648438c0-21.824218 0-130.082031 0-149.566406h-120.648438zm90.738281-29.914062h-60.824219v-29.914062h60.824219zm0-89.738281v29.910156h-60.824219v-29.910156zm0 0"/><path d="m150.5625 510.726562h149.566406c0-44.164062 0-160.171874 0-209.394531h-149.566406zm119.652344-29.914062h-89.738282v-29.914062h89.738282zm-89.738282-59.828125v-29.910156h89.738282v29.910156zm89.738282-89.738281v29.914062h-89.738282v-29.914062zm0 0"/><path d="m330.042969 510.726562h180.476562c0-31.605468 0-235.664062 0-269.21875h-180.476562zm150.5625-29.914062h-120.648438v-29.914062h120.648438zm-120.648438-59.828125v-29.910156h120.648438v29.910156zm0-59.824219v-29.914062h120.648438v29.914062zm120.648438-89.738281v29.910156h-120.648438v-29.910156zm0 0"/><path d="m328.859375 119.859375h31.097656v91.734375h119.652344v-91.734375h32.390625l-92.316406-119.859375zm122.34375-29.914063h-1.507813v91.734376h-59.828124v-91.734376h-.808594l30.820312-40.671874zm0 0"/></svg>