<svg height="512pt" viewBox="0 -28 512 512" width="512pt" xmlns="http://www.w3.org/2000/svg"><path d="m481 366.214844h31v-150h-31v-90h-98.785156l-126.214844-126.214844-45 45-45-45-126.214844 126.214844h-39.785156v330h481zm1-30h-76c-24.8125 0-45-20.1875-45-45s20.1875-45 45-45h76zm-31-120h-30v-60h30zm-111.214844-90h-167.570312l83.785156-83.789063zm-173.785156-83.789063 23.785156 23.789063-60 60h-47.570312zm-136 113.789063h361v61.507812c-34.191406 6.96875-60 37.269532-60 73.492188 0 36.21875 25.808594 66.519531 60 73.488281v61.511719h-361zm391 270v-60h30v60zm0 0"/><path d="m391 276.214844h30v30h-30zm0 0"/></svg>